<svg width="24" height="24" viewBox="0 0 24 24" fill="none" xmlns="http://www.w3.org/2000/svg">
<path d="M15.005 2.00297C15.7071 2.00299 16.3969 2.18782 17.005 2.5389C17.613 2.88998 18.118 3.39494 18.469 4.00301C18.8201 4.61109 19.0049 5.30086 19.0049 6.00299C19.0049 6.70513 18.8201 7.3949 18.469 8.00297H23.005V10.003H21.005V20.003C21.005 20.2682 20.8996 20.5225 20.7121 20.7101C20.5246 20.8976 20.2702 21.003 20.005 21.003H4.005C3.73979 21.003 3.48543 20.8976 3.2979 20.7101C3.11036 20.5225 3.005 20.2682 3.005 20.003V10.003H1.005V8.00297H5.54C5.04269 7.14371 4.88269 6.13023 5.09111 5.15956C5.29952 4.18889 5.86146 3.33041 6.66767 2.75105C7.47387 2.17168 8.46672 1.91282 9.45318 2.02481C10.4396 2.13679 11.3492 2.61162 12.005 3.35697C12.3795 2.93051 12.8408 2.58906 13.358 2.35553C13.8753 2.122 14.4365 2.00179 15.004 2.00297M13.004 10.003H11.004V20.003H13.004V10.003ZM9.004 4.00297C8.48739 4.00419 7.99128 4.20527 7.61961 4.5641C7.24794 4.92292 7.02953 5.41165 7.01014 5.9279C6.99076 6.44416 7.17189 6.94789 7.5156 7.33358C7.85931 7.71927 8.33893 7.957 8.854 7.99697L9.004 8.00297H11.004V6.00297C11.004 5.52503 10.8329 5.06288 10.5216 4.70022C10.2103 4.33757 9.77943 4.09838 9.307 4.02597L9.153 4.00797L9.004 4.00297ZM15.004 4.00297C14.4994 4.00281 14.0134 4.19337 13.6435 4.53646C13.2735 4.87956 13.0468 5.34981 13.009 5.85297L13.004 6.00297V8.00297H15.004C15.5084 8.00288 15.9942 7.8122 16.3639 7.46913C16.7337 7.12606 16.9602 6.65595 16.998 6.15297L17.004 6.00297C17.004 5.47253 16.7933 4.96383 16.4182 4.58875C16.0431 4.21368 15.5344 4.00297 15.004 4.00297Z" fill="#F52828"/>
</svg>
