<svg width="29" height="28" viewBox="0 0 29 28" fill="none" xmlns="http://www.w3.org/2000/svg">
<g clip-path="url(#clip0_226_400)">
<path d="M26.977 22.9837C26.8459 21.7328 26.7511 20.4793 26.6437 19.2264C26.477 17.2748 26.3156 15.3225 26.1482 13.3702C25.98 11.409 25.7971 9.44915 25.64 7.48795C25.5452 6.30493 24.6734 5.52675 23.3861 5.52333C22.6469 5.52127 21.9077 5.51031 21.1692 5.52949C20.8989 5.53703 20.8396 5.46167 20.83 5.22192C20.7411 2.99767 19.2197 1.08443 16.9672 0.322005C16.5154 0.169246 16.0406 0.118555 15.5821 0.000732422C15.1681 0.000732422 14.7548 0.000732422 14.3407 0.000732422C14.1319 0.113075 13.8897 0.0911544 13.6652 0.144586C10.9876 0.787815 9.2655 2.74559 9.14699 5.30275C9.13884 5.474 9.09958 5.53086 8.9033 5.52744C8.1352 5.51579 7.36636 5.52059 6.59826 5.52333C5.30871 5.52607 4.43617 6.30219 4.34432 7.48589C4.21322 9.16624 4.05989 10.8452 3.91546 12.5249C3.7651 14.2771 3.614 16.0287 3.46215 17.781C3.33253 19.2791 3.20439 20.7766 3.07181 22.2747C3.00514 23.0289 2.92441 23.7824 3.13995 24.5284C3.7488 26.6362 5.65017 27.9905 8.01595 27.9925C11.7009 27.9959 15.3851 27.9939 19.0701 27.9932C20.1337 27.9932 21.1988 28.0158 22.2617 27.9829C25.0771 27.8959 27.2481 25.5717 26.977 22.9837ZM10.9113 5.28152C10.9832 3.37238 12.666 1.75643 14.7103 1.64888C16.8658 1.53517 18.7227 2.92506 19.019 4.87325C19.1175 5.52196 19.1175 5.52196 18.4175 5.52196C17.2761 5.52196 16.1347 5.52196 14.9933 5.52196C13.7237 5.52196 12.4542 5.51785 11.1854 5.52607C10.9787 5.52744 10.9032 5.50209 10.9113 5.28152ZM21.9951 26.3519C19.6604 26.3567 17.3257 26.3533 14.9918 26.3533C12.6868 26.3533 10.3817 26.354 8.07668 26.3533C5.97015 26.3526 4.57986 24.8914 4.7917 22.9529C4.95169 21.4856 5.05094 20.0128 5.17686 18.542C5.34796 16.5541 5.5198 14.5669 5.6909 12.579C5.83386 10.9178 5.97681 9.25666 6.11829 7.59618C6.14791 7.25299 6.2442 7.16394 6.61011 7.16325C7.37821 7.16188 8.14705 7.16805 8.91515 7.15846C9.09292 7.1564 9.14921 7.19134 9.14477 7.36533C9.13143 7.93869 9.13736 8.51273 9.14032 9.08678C9.14328 9.63136 9.51882 10.0088 10.0417 10.0006C10.5565 9.99237 10.9106 9.62383 10.9128 9.08815C10.915 8.5141 10.9217 7.94006 10.9084 7.3667C10.9047 7.19476 10.9565 7.15777 11.1365 7.15846C13.7074 7.16394 16.2784 7.16462 18.8494 7.15846C19.0323 7.15777 19.079 7.20024 19.076 7.36876C19.0642 7.9517 19.0686 8.53465 19.0723 9.1176C19.0753 9.62862 19.4389 9.99374 19.9448 10.0013C20.4574 10.0088 20.8396 9.63616 20.844 9.11349C20.8492 8.53945 20.8507 7.96541 20.8418 7.39205C20.8396 7.23107 20.8581 7.15366 21.0714 7.15777C21.8492 7.17147 22.6276 7.1612 23.4061 7.16394C23.7342 7.16531 23.8379 7.26258 23.8646 7.57084C24.1424 10.811 24.4186 14.0518 24.6979 17.2919C24.8653 19.2339 25.0371 21.1759 25.2075 23.1179C25.3652 24.9147 23.9468 26.3485 21.9951 26.3519Z" fill="black"/>
<path d="M13.7808 19.5333C13.5105 19.5415 13.2949 19.4401 13.1142 19.2729C12.4172 18.6297 11.7165 17.9885 11.0269 17.3378C10.6395 16.972 10.6432 16.476 11.0136 16.1452C11.3721 15.8246 11.8913 15.8342 12.2816 16.1849C12.7342 16.5911 13.1809 17.0028 13.6171 17.4234C13.7445 17.546 13.806 17.5392 13.9327 17.4213C15.16 16.276 16.3969 15.1389 17.6265 13.9963C17.9198 13.7236 18.2457 13.577 18.6613 13.7182C19.2168 13.9065 19.4175 14.5052 19.0768 14.9512C19.0146 15.032 18.9383 15.1053 18.862 15.1759C17.4139 16.5164 15.9644 17.8556 14.5171 19.1976C14.3089 19.3908 14.0867 19.5456 13.7808 19.5333Z" fill="black"/>
</g>
<defs>
<clipPath id="clip0_226_400">
<rect width="24" height="28" fill="white" transform="translate(3)"/>
</clipPath>
</defs>
</svg>
